<svg width="29" height="31" viewBox="0 0 29 31" fill="none" xmlns="http://www.w3.org/2000/svg">
<path fill-rule="evenodd" clip-rule="evenodd" d="M0 2.07138C0 1.3087 0.61828 0.69043 1.38095 0.69043H2.67691C4.57793 0.69043 6.235 1.98423 6.69606 3.82849L6.70244 3.85397L7.34413 6.91035H25.573C26.0667 6.91944 26.5944 6.94522 27.0676 7.07007C27.5954 7.2093 28.1167 7.48702 28.5042 8.02021C28.9804 8.67533 29.0302 9.40521 28.9881 10.0184C28.9489 10.5871 28.81 11.277 28.6589 12.0268L28.6429 12.1068C28.0868 14.8692 27.5257 17.5688 26.1822 19.5297C25.4791 20.5559 24.5591 21.3933 23.3355 21.9612C22.1276 22.5217 20.6956 22.7864 19.0063 22.7864H9.56866C8.763 22.81 8.02705 23.3547 7.73188 24.1666H22.0952L22.093 24.1701L22.0919 24.1721H22.0952C23.8112 24.1721 25.2024 25.5631 25.2024 27.2792C25.2024 28.9952 23.8112 30.3864 22.0952 30.3864C20.3793 30.3864 18.9881 28.9952 18.9881 27.2792C18.9881 27.1606 18.9947 27.0436 19.0077 26.9285H15.5161C15.5291 27.0436 15.5357 27.1606 15.5357 27.2792C15.5357 28.9952 14.1445 30.3864 12.4286 30.3864C10.7125 30.3864 9.32143 28.9952 9.32143 27.2792C9.32143 27.1606 9.32807 27.0436 9.341 26.9285H6.78245C5.6534 26.9285 4.83333 25.9916 4.83333 24.9558C4.83333 23.0887 5.85603 21.4215 7.39351 20.5873L4.01117 4.47725C3.85025 3.87375 3.30331 3.45233 2.67691 3.45233H1.38095C0.61828 3.45233 0 2.83405 0 2.07138ZM12.4286 26.2435C11.8566 26.2435 11.3929 26.7071 11.3929 27.2792C11.3929 27.8512 11.8566 28.3149 12.4286 28.3149C13.0006 28.3149 13.4643 27.8512 13.4643 27.2792C13.4643 26.7071 13.0006 26.2435 12.4286 26.2435ZM22.0952 26.2435C21.5233 26.2435 21.0595 26.7071 21.0595 27.2792C21.0595 27.8512 21.5233 28.3149 22.0952 28.3149C22.6672 28.3149 23.131 27.8512 23.131 27.2792C23.131 26.7071 22.6672 26.2435 22.0952 26.2435Z" fill="white"/>
</svg>
