<svg width="16" height="16" viewBox="0 0 16 16" fill="none" xmlns="http://www.w3.org/2000/svg">
<path fill-rule="evenodd" clip-rule="evenodd" d="M8.04464 1.16144e-07C9.75446 -7.68873e-06 11.0974 -1.54681e-05 12.146 0.140948C13.2204 0.285409 14.0729 0.587489 14.7427 1.2573C15.4125 1.92711 15.7146 2.77961 15.859 3.85406C16 4.90259 16 6.24557 16 7.95536V8.04464C16 9.75446 16 11.0974 15.859 12.146C15.7146 13.2204 15.4125 14.0729 14.7427 14.7427C14.0729 15.4125 13.2204 15.7146 12.146 15.859C11.0974 16 9.75446 16 8.04464 16H7.95536C6.24554 16 4.90259 16 3.85406 15.859C2.77961 15.7146 1.92711 15.4125 1.2573 14.7427C0.587489 14.0729 0.285409 13.2204 0.140948 12.146C-1.54681e-05 11.0974 -7.68873e-06 9.75446 1.16144e-07 8.04464V7.95536C-7.68873e-06 6.24555 -1.54681e-05 4.90259 0.140948 3.85406C0.285409 2.77961 0.587489 1.92711 1.2573 1.2573C1.92711 0.587489 2.77961 0.285409 3.85406 0.140948C4.90259 -1.54681e-05 6.24556 -7.68873e-06 7.95536 1.16144e-07H8.04464ZM11.6493 5.0832C11.9671 5.37447 11.9885 5.86818 11.6973 6.18594L7.40464 10.8688C7.26072 11.0258 7.05904 11.1171 6.8462 11.1218C6.63337 11.1264 6.42791 11.0439 6.27738 10.8933L4.32616 8.94213C4.02136 8.63735 4.02136 8.14314 4.32616 7.83836C4.63096 7.53358 5.12514 7.53358 5.42994 7.83836L6.80476 9.21319L10.5466 5.13115C10.8379 4.81339 11.3316 4.79193 11.6493 5.0832Z" fill="#41B66B"/>
</svg>
