<svg width="45" height="49" viewBox="0 0 45 49" fill="none" xmlns="http://www.w3.org/2000/svg">
<path fill-rule="evenodd" clip-rule="evenodd" d="M35.824 9.31747H16.1207V0.958496H44.183V29.0208H35.824V9.31747Z" fill="white"/>
<path fill-rule="evenodd" clip-rule="evenodd" d="M20.4332 25.9503C19.1567 25.0974 17.656 24.6422 16.1209 24.6422V16.2832C19.3093 16.2832 22.4261 17.2287 25.0772 19.0001C27.7282 20.7715 29.7945 23.2892 31.0146 26.2349C32.2348 29.1806 32.554 32.422 31.932 35.5491C31.31 38.6763 29.7746 41.5487 27.5201 43.8033C25.2655 46.0578 22.393 47.5932 19.2659 48.2152C16.1387 48.8372 12.8974 48.518 9.95167 47.2978C7.00596 46.0777 4.48822 44.0114 2.71684 41.3603C0.945462 38.7093 -6.07368e-06 35.5925 0 32.4041L8.35898 32.4041C8.35897 33.9392 8.8142 35.4399 9.66709 36.7164C10.52 37.9928 11.7322 38.9877 13.1505 39.5751C14.5688 40.1626 16.1295 40.3163 17.6351 40.0169C19.1408 39.7174 20.5238 38.9781 21.6094 37.8926C22.6949 36.8071 23.4341 35.424 23.7336 33.9184C24.0331 32.4127 23.8794 30.852 23.292 29.4337C22.7045 28.0154 21.7096 26.8032 20.4332 25.9503Z" fill="white"/>
</svg>
