<svg width="108" height="36" viewBox="0 0 108 36" fill="none" xmlns="http://www.w3.org/2000/svg">
<path d="M97.4073 35.2219C95.2045 35.2219 93.2285 34.8332 91.4793 34.0557C89.73 33.2459 88.3371 32.1607 87.3005 30.8002C86.2963 29.4396 85.7456 27.9333 85.6484 26.2813H92.4997C92.6293 27.3179 93.1314 28.1763 94.006 28.8566C94.913 29.5368 96.0306 29.877 97.3587 29.877C98.6544 29.877 99.6586 29.6178 100.371 29.0995C101.116 28.5812 101.489 27.9171 101.489 27.1073C101.489 26.2327 101.035 25.5848 100.128 25.1637C99.2537 24.7102 97.8446 24.2243 95.901 23.706C93.8926 23.2201 92.2405 22.718 90.9448 22.1997C89.6814 21.6814 88.5801 20.8877 87.6406 19.8188C86.7336 18.7498 86.2801 17.3083 86.2801 15.4942C86.2801 14.0041 86.7012 12.6436 87.5435 11.4126C88.4181 10.1817 89.649 9.20987 91.2363 8.49721C92.856 7.78455 94.751 7.42822 96.9214 7.42822C100.128 7.42822 102.687 8.23806 104.599 9.85774C106.51 11.445 107.563 13.5992 107.757 16.3203H101.246C101.149 15.2513 100.695 14.409 99.8854 13.7936C99.108 13.1457 98.0552 12.8218 96.727 12.8218C95.4961 12.8218 94.5405 13.0485 93.8602 13.502C93.2123 13.9555 92.8884 14.5872 92.8884 15.397C92.8884 16.3041 93.3419 17.0005 94.2489 17.4864C95.1559 17.9399 96.5651 18.4096 98.4763 18.8955C100.42 19.3814 102.023 19.8835 103.287 20.4018C104.55 20.9201 105.635 21.73 106.542 22.8314C107.482 23.9003 107.968 25.3257 108 27.1073C108 28.6622 107.563 30.0551 106.688 31.2861C105.846 32.517 104.615 33.4888 102.995 34.2015C101.408 34.8818 99.5453 35.2219 97.4073 35.2219Z" fill="white"/>
<path d="M77.1919 34.7843L71.6526 26.4267L66.745 34.7843H59.4564L68.2513 21.2762L59.3593 7.86523H67.0365L72.5272 16.1742L77.4834 7.86523H84.772L75.9286 21.2762L84.8692 34.7843H77.1919Z" fill="white"/>
<path d="M58.8154 20.742C58.8154 21.7138 58.7506 22.5884 58.621 23.3659H38.9419C39.1039 25.3095 39.7842 26.832 40.9827 27.9333C42.1813 29.0347 43.6552 29.5854 45.4045 29.5854C47.9312 29.5854 49.729 28.5002 50.798 26.3299H58.1351C57.3577 28.9213 55.8676 31.0593 53.6648 32.7438C51.4621 34.3959 48.7572 35.2219 45.5502 35.2219C42.9587 35.2219 40.6264 34.655 38.5532 33.5212C36.5124 32.3551 34.9089 30.7192 33.7428 28.6136C32.609 26.508 32.0421 24.0785 32.0421 21.3251C32.0421 18.5392 32.609 16.0935 33.7428 13.9879C34.8766 11.8823 36.4638 10.2627 38.5046 9.12889C40.5454 7.99511 42.894 7.42822 45.5502 7.42822C48.1093 7.42822 50.3931 7.97891 52.4015 9.08029C54.4423 10.1817 56.0133 11.7528 57.1147 13.7936C58.2485 15.802 58.8154 18.1181 58.8154 20.742ZM51.7698 18.7984C51.7374 17.0491 51.1057 15.6562 49.8748 14.6196C48.6438 13.5506 47.1375 13.0161 45.3559 13.0161C43.6714 13.0161 42.2461 13.5344 41.0799 14.571C39.9461 15.5752 39.2497 16.9843 38.9905 18.7984H51.7698Z" fill="white"/>
<path d="M28.5537 0.868164V34.7842H21.7511V20.3529H7.22257V34.7842H0.419922V0.868164H7.22257V14.8136H21.7511V0.868164H28.5537Z" fill="white"/>
</svg>
