<svg width="16" height="15" viewBox="0 0 16 15" fill="none" xmlns="http://www.w3.org/2000/svg">
<path fill-rule="evenodd" clip-rule="evenodd" d="M0.942135 2.26649C0.703341 2.59073 0.7726 3.04716 1.09683 3.28596C1.22718 3.38195 1.37888 3.42816 1.52922 3.42804H2.62294V9.26099C2.62294 12.3635 4.89954 14.7294 8.09132 14.7294C8.49401 14.7294 8.82044 14.403 8.82044 14.0003C8.82044 13.5976 8.49401 13.2711 8.09132 13.2711C5.72 13.2711 4.08118 11.5733 4.08118 9.26099V3.42804H5.1808C5.32917 3.42695 5.47858 3.38069 5.60719 3.28598C5.93143 3.04719 6.00061 2.59064 5.76181 2.2664L5.75995 2.26394C5.71856 2.20912 5.60067 2.05304 5.53236 1.96551C5.39424 1.78851 5.20299 1.55006 4.99412 1.30947C4.78837 1.07251 4.55115 0.816757 4.32227 0.614513C4.20866 0.514128 4.0799 0.411483 3.9447 0.329982C3.82952 0.260548 3.61513 0.146973 3.35202 0.146973C3.08893 0.146973 2.87454 0.260548 2.75936 0.329982C2.62417 0.411483 2.49541 0.514128 2.3818 0.614513C2.1529 0.816749 1.91569 1.0725 1.70994 1.30946C1.50106 1.55005 1.30982 1.78849 1.17169 1.96549C1.10349 2.05287 0.985795 2.20869 0.944206 2.26376L0.942135 2.26649Z" fill="white"/>
<path fill-rule="evenodd" clip-rule="evenodd" d="M13.5597 5.61537C13.5597 2.51286 11.2831 0.146973 8.0913 0.146973C7.68861 0.146973 7.36218 0.473414 7.36218 0.876093C7.36218 1.27878 7.68861 1.60521 8.0913 1.60521C10.4627 1.60521 12.1015 3.30304 12.1015 5.61537V11.4483H11.0078C10.8574 11.4482 10.7058 11.4944 10.5754 11.5904C10.2512 11.8292 10.182 12.2858 10.4208 12.6099L10.4227 12.6125C10.4642 12.6674 10.582 12.8233 10.6503 12.9108C10.7884 13.0879 10.9796 13.3263 11.1885 13.5669C11.3943 13.8039 11.6315 14.0596 11.8603 14.2618C11.974 14.3622 12.1028 14.4649 12.238 14.5463C12.3532 14.6158 12.5675 14.7293 12.8306 14.7293C13.0937 14.7293 13.3081 14.6158 13.4233 14.5463C13.5585 14.4649 13.6872 14.3622 13.8008 14.2618C14.0298 14.0596 14.2669 13.8039 14.4727 13.5669C14.6816 13.3263 14.8728 13.0878 15.0109 12.9108C15.0792 12.8233 15.197 12.6674 15.2385 12.6124L15.2405 12.6098C15.4793 12.2856 15.41 11.8292 15.0858 11.5903C14.9545 11.4937 14.8016 11.4475 14.6502 11.4483H13.5597V5.61537Z" fill="white"/>
</svg>
