<svg width="3" height="15" viewBox="0 0 3 15" fill="none" xmlns="http://www.w3.org/2000/svg">
<path d="M1.49057 3.23027C1.08805 3.23027 0.735849 3.08259 0.433962 2.78723C0.144654 2.47902 0 2.11945 0 1.70851C0 1.29757 0.144654 0.937994 0.433962 0.629788C0.735849 0.321583 1.08805 0.16748 1.49057 0.16748C1.90566 0.16748 2.25786 0.321583 2.54717 0.629788C2.84906 0.937994 3 1.29757 3 1.70851C3 2.11945 2.84906 2.47902 2.54717 2.78723C2.25786 3.08259 1.90566 3.23027 1.49057 3.23027ZM1.5 14.0175C0.82788 14.0175 0.283019 13.4726 0.283019 12.8005V5.60302C0.283019 4.9309 0.82788 4.38604 1.5 4.38604C2.17212 4.38604 2.71698 4.9309 2.71698 5.60302V12.8005C2.71698 13.4726 2.17212 14.0175 1.5 14.0175Z" fill="#FFC008"/>
</svg>
