<svg width="185" height="59" viewBox="0 0 185 59" fill="none" xmlns="http://www.w3.org/2000/svg">
<path d="M69.5357 44.2899C62.7997 44.1211 57.0944 40.4183 56.6669 34.1798C56.6421 33.8179 56.9368 33.5213 57.2988 33.5213H63.4802C63.8176 33.5213 64.0951 33.7804 64.1549 34.113C64.667 36.9581 66.9298 38.2435 69.6519 38.3526C72.0332 38.4108 74.1822 37.2466 74.2403 35.2093C74.2984 33.0556 72.8464 32.0661 69.3034 31.484C61.8109 30.5526 56.8159 28.8064 56.6997 22.7527C56.5836 17.2228 61.6367 13.6139 68.7226 13.6139C75.8037 13.6139 81.3078 16.9927 81.8676 23.5922C81.8988 23.9599 81.602 24.2661 81.2338 24.2661H75.0838C74.7401 24.2661 74.4603 23.9968 74.3991 23.6579C73.9661 21.2576 71.911 19.6632 69.013 19.6094C66.3413 19.5512 64.5988 21.0064 64.5988 23.0437C64.6569 25.0228 66.1089 26.187 69.9423 26.8855C78.2479 28.3407 82.0813 29.6213 82.0232 35.7332C82.0232 41.4959 76.6797 44.4645 69.5357 44.2899Z" fill="white"/>
<path d="M169.582 41.5739C161.333 41.5739 154.325 35.901 154.271 27.4727C154.217 18.6662 161.01 13.1013 169.582 13.1013C178.315 13.1013 185.054 18.6662 185 27.4727C184.946 35.793 178.531 41.5739 169.582 41.5739ZM161.819 27.4187C161.819 31.903 165.215 35.3607 169.528 35.3607C173.948 35.3607 177.398 32.065 177.398 27.4187C177.398 22.7723 174.056 19.3145 169.582 19.3145C165.215 19.3145 161.819 22.6102 161.819 27.4187Z" fill="white"/>
<path d="M154.812 39.8106C154.868 40.1141 154.704 40.4167 154.415 40.5232C147.253 43.1628 138.034 40.0543 138.034 30.3902V20.5076C138.034 20.147 137.742 19.8547 137.382 19.8547H134.534C134.174 19.8547 133.883 19.5625 133.883 19.2019V13.9628C133.883 13.6052 134.174 13.3171 134.53 13.2913C138.389 13.0115 138.073 10.5504 138.036 6.02983C138.034 5.66929 138.325 5.3753 138.685 5.3753H144.934C145.292 5.3753 145.583 5.66488 145.585 6.02369L145.63 12.669C145.633 13.0278 145.924 13.3174 146.282 13.3174H152.315C152.675 13.3174 152.967 13.6097 152.967 13.9702V19.2019C152.967 19.5625 152.675 19.8547 152.315 19.8547H146.232C145.873 19.8547 145.581 20.147 145.581 20.5076V29.4177C145.581 33.6891 149.019 35.3283 152.975 34.1098C153.366 33.9892 153.79 34.2234 153.864 34.6274L154.812 39.8106Z" fill="white"/>
<path d="M127.214 41.0335C126.135 41.0335 125.26 40.1567 125.26 39.075V15.5999C125.26 14.5183 126.135 13.6414 127.214 13.6414H130.853C131.932 13.6414 132.807 14.5183 132.807 15.5999V39.075C132.807 40.1567 131.932 41.0335 130.853 41.0335H127.214Z" fill="white"/>
<path d="M117.928 41.0333C116.849 41.0333 115.974 40.1564 115.974 39.0748V12.3256C115.974 11.6996 116.272 11.1112 116.777 10.7426L120.47 8.04675C121.762 7.10391 123.575 8.02846 123.575 9.6298V39.0748C123.575 40.1564 122.7 41.0333 121.621 41.0333H117.928Z" fill="white"/>
<path d="M84.1801 50.218C83.8203 50.218 83.5287 49.9258 83.5287 49.5652V18.5675C83.5287 18.3308 83.6565 18.1126 83.8628 17.9973L90.1073 14.5069C90.5415 14.2642 91.076 14.5788 91.076 15.077V20.3947C92.3699 16.1805 96.7365 13.3171 101.157 13.3171C108.92 13.209 114.581 19.4762 114.581 27.3103C114.581 36.3329 108.92 41.6276 101.588 41.5736C97.1139 41.5196 92.4777 39.0883 91.1299 34.604V49.5652C91.1299 49.9258 90.8383 50.218 90.4785 50.218H84.1801ZM91.3995 27.3103C91.3995 32.3889 94.9575 35.2523 99.2164 35.3604C103.529 35.4144 106.979 32.4969 106.979 27.3103C106.979 22.6639 103.421 19.5303 99.2164 19.5843C95.0114 19.6383 91.3995 22.7719 91.3995 27.3103Z" fill="white"/>
<path d="M127.084 9.79147L129.862 11.8607C130.292 12.1808 130.902 11.8734 130.902 11.3367V0.654089C130.902 0.0992286 130.255 -0.202676 129.831 0.154431L116.803 11.1339C116.656 11.258 116.571 11.4409 116.571 11.6336V16.7614C116.571 17.3198 117.225 17.6205 117.647 17.2563L126.27 9.82058C126.501 9.62141 126.839 9.60932 127.084 9.79147Z" fill="white"/>
<path d="M7.429 21.073L1.92205 15.6042C1.20567 14.8927 -0.0110945 15.409 7.63822e-05 16.4197L0.324169 45.7418C0.335234 46.7429 1.54342 47.2366 2.2498 46.5287L28.7813 19.939C30.4061 18.3106 31.3002 16.0899 31.2579 13.7874L31.0394 1.89371C31.0212 0.899167 29.8226 0.411324 29.1176 1.11147L9.017 21.073C8.57732 21.5097 7.86868 21.5097 7.429 21.073Z" fill="white"/>
<path d="M38.7601 37.9123L44.2975 43.4113C45.0096 44.1185 46.2195 43.613 46.2195 42.6083V13.2859C46.2195 12.2787 45.0044 11.7743 44.2938 12.4865L17.5628 39.2761C15.9599 40.8826 15.0673 43.0665 15.0851 45.3383L15.1771 57.0523C15.185 58.0527 16.3901 58.5506 17.0992 57.8464L37.1721 37.9123C37.6118 37.4757 38.3204 37.4757 38.7601 37.9123Z" fill="white"/>
</svg>
