<svg width="24" height="27" viewBox="0 0 24 27" fill="none" xmlns="http://www.w3.org/2000/svg">
<path d="M7.87319 2.60702L5.79671 3.58146C2.5989 5.08211 1 5.83243 1 7.06408C1 8.29573 2.5989 9.04605 5.79672 10.5467L7.87319 11.5211C9.88561 12.4655 10.8919 12.9377 11.9621 12.9377C13.0322 12.9377 14.0385 12.4655 16.0509 11.5211L18.1274 10.5467C21.3253 9.04605 22.9241 8.29573 22.9241 7.06408C22.9241 5.83243 21.3253 5.08211 18.1274 3.58146L16.0509 2.60702C14.0385 1.66262 13.0322 1.19043 11.9621 1.19043C10.8919 1.19043 9.88561 1.66262 7.87319 2.60702Z" stroke="white" stroke-width="1.82701" stroke-linecap="round" stroke-linejoin="round"/>
<path d="M22.6659 12.4395C22.838 12.6852 22.9241 12.9414 22.9241 13.2231C22.9241 14.4371 21.3253 15.1768 18.1274 16.6561L16.0509 17.6167C14.0385 18.5476 13.0322 19.0131 11.9621 19.0131C10.8919 19.0131 9.88561 18.5476 7.87319 17.6167L5.79672 16.6561C2.5989 15.1768 1 14.4371 1 13.2231C1 12.9414 1.08608 12.6852 1.25822 12.4395" stroke="white" stroke-width="1.82701" stroke-linecap="round" stroke-linejoin="round"/>
<path d="M22.165 18.8311C22.671 19.2404 22.9241 19.6483 22.9241 20.1313C22.9241 21.3455 21.3253 22.0851 18.1274 23.5644L16.0509 24.5249C14.0385 25.4559 13.0322 25.9214 11.9621 25.9214C10.8919 25.9214 9.88561 25.4559 7.87319 24.5249L5.79672 23.5644C2.5989 22.0851 1 21.3455 1 20.1313C1 19.6483 1.25308 19.2404 1.75923 18.8311" stroke="white" stroke-width="1.82701" stroke-linecap="round" stroke-linejoin="round"/>
</svg>
