<svg width="31" height="32" viewBox="0 0 31 32" fill="none" xmlns="http://www.w3.org/2000/svg">
<rect x="0.836212" y="0.853027" width="29.7542" height="30.2073" rx="6.19879" fill="#FF0000" fill-opacity="0.2"/>
<path fill-rule="evenodd" clip-rule="evenodd" d="M14.706 9.15276C15.4785 8.89244 16.311 8.89244 17.0834 9.15276C17.8528 9.41201 18.4568 10.0269 19.0635 10.8908C19.6684 11.7518 20.3367 12.9523 21.1981 14.4998L21.2319 14.5606C22.0935 16.1083 22.7618 17.3088 23.1783 18.2824C23.5967 19.2607 23.8051 20.1053 23.6389 20.9168C23.4714 21.7338 23.0585 22.4768 22.4572 23.0383C21.8573 23.5985 21.0405 23.8349 20.0121 23.9483C18.9895 24.0612 17.6518 24.0612 15.9301 24.0612H15.8594C14.1376 24.0612 12.8 24.0612 11.7773 23.9483C10.7489 23.8349 9.93212 23.5985 9.33227 23.0383C8.73095 22.4768 8.31806 21.7338 8.15062 20.9168C7.98432 20.1053 8.19275 19.2607 8.61123 18.2824C9.02769 17.3088 9.69595 16.1083 10.5575 14.5606L10.5914 14.4998C11.4528 12.9523 12.1211 11.7518 12.7259 10.8908C13.3327 10.0269 13.9367 9.41201 14.706 9.15276ZM15.169 20.1932C15.169 19.7863 15.4925 19.4564 15.8915 19.4564H15.898C16.297 19.4564 16.6204 19.7863 16.6204 20.1932C16.6204 20.6001 16.297 20.9299 15.898 20.9299H15.8915C15.4925 20.9299 15.169 20.6001 15.169 20.1932ZM15.169 17.2461C15.169 17.653 15.4939 17.9829 15.8947 17.9829C16.2955 17.9829 16.6204 17.653 16.6204 17.2461V14.2991C16.6204 13.8922 16.2955 13.5623 15.8947 13.5623C15.4939 13.5623 15.169 13.8922 15.169 14.2991V17.2461Z" fill="#FF5F5F"/>
</svg>
