<svg width="16" height="15" viewBox="0 0 16 15" fill="none" xmlns="http://www.w3.org/2000/svg">
<path fill-rule="evenodd" clip-rule="evenodd" d="M1.06378 2.26649C0.824984 2.59073 0.894243 3.04716 1.21848 3.28596C1.34882 3.38195 1.50052 3.42816 1.65086 3.42804H2.74458V9.26099C2.74458 12.3635 5.02119 14.7294 8.21296 14.7294C8.61565 14.7294 8.94208 14.403 8.94208 14.0003C8.94208 13.5976 8.61565 13.2711 8.21296 13.2711C5.84164 13.2711 4.20282 11.5733 4.20282 9.26099V3.42804H5.30244C5.45081 3.42695 5.60022 3.38069 5.72883 3.28598C6.05307 3.04719 6.12225 2.59064 5.88346 2.2664L5.8816 2.26394C5.8402 2.20912 5.72231 2.05304 5.654 1.96551C5.51588 1.78851 5.32464 1.55006 5.11576 1.30947C4.91002 1.07251 4.6728 0.816757 4.44391 0.614513C4.3303 0.514128 4.20154 0.411483 4.06634 0.329982C3.95117 0.260548 3.73677 0.146973 3.47367 0.146973C3.21057 0.146973 2.99619 0.260548 2.88101 0.329982C2.74581 0.411483 2.61705 0.514128 2.50344 0.614513C2.27455 0.816749 2.03733 1.0725 1.83159 1.30946C1.6227 1.55005 1.43146 1.78849 1.29333 1.96549C1.22513 2.05287 1.10744 2.20869 1.06585 2.26376L1.06378 2.26649Z" fill="white"/>
<path fill-rule="evenodd" clip-rule="evenodd" d="M13.6813 5.61537C13.6813 2.51286 11.4047 0.146973 8.21295 0.146973C7.81025 0.146973 7.48383 0.473414 7.48383 0.876093C7.48383 1.27878 7.81025 1.60521 8.21295 1.60521C10.5843 1.60521 12.2231 3.30304 12.2231 5.61537V11.4483H11.1294C10.9791 11.4482 10.8274 11.4944 10.6971 11.5904C10.3728 11.8292 10.3036 12.2858 10.5424 12.6099L10.5444 12.6125C10.5858 12.6674 10.7036 12.8233 10.7719 12.9108C10.91 13.0879 11.1013 13.3263 11.3102 13.5669C11.5159 13.8039 11.7531 14.0596 11.982 14.2618C12.0957 14.3622 12.2244 14.4649 12.3596 14.5463C12.4748 14.6158 12.6892 14.7293 12.9522 14.7293C13.2154 14.7293 13.4297 14.6158 13.5449 14.5463C13.6801 14.4649 13.8089 14.3622 13.9225 14.2618C14.1514 14.0596 14.3886 13.8039 14.5943 13.5669C14.8032 13.3263 14.9945 13.0878 15.1326 12.9108C15.2008 12.8233 15.3187 12.6674 15.3601 12.6124L15.3621 12.6098C15.6009 12.2856 15.5316 11.8292 15.2074 11.5903C15.0762 11.4937 14.9233 11.4475 14.7719 11.4483H13.6813V5.61537Z" fill="white"/>
</svg>
