<svg width="26" height="26" viewBox="0 0 26 26" fill="none" xmlns="http://www.w3.org/2000/svg">
<path d="M11.1431 14.0488L6.85681 5.66455L14.3968 11.497C15.4687 12.3262 15.4742 13.906 14.408 14.7421C13.3419 15.5783 11.7525 15.2407 11.1431 14.0488Z" fill="white"/>
<path fill-rule="evenodd" clip-rule="evenodd" d="M11.6538 0H12.8193C19.8992 0 25.6385 5.73938 25.6385 12.8193C25.6385 19.8991 19.8992 25.6386 12.8193 25.6386C5.73938 25.6386 0 19.8991 0 12.8193C0 9.23345 1.4738 5.98976 3.84573 3.66452L5.47738 5.32892C3.53419 7.23386 2.33078 9.88497 2.33078 12.8193C2.33078 18.6119 7.02662 23.3077 12.8193 23.3077C18.6119 23.3077 23.3078 18.6119 23.3078 12.8193C23.3078 7.42054 19.2289 2.9745 13.9847 2.39479V4.66155H11.6538V0Z" fill="white"/>
</svg>
