<svg width="27" height="30" viewBox="0 0 27 30" fill="none" xmlns="http://www.w3.org/2000/svg">
<path d="M26.9286 14.9167C26.9286 16.413 26.9286 17.6358 26.793 18.6012C26.6511 19.6103 26.3442 20.4853 25.614 21.1836C24.8839 21.882 23.9693 22.1755 22.9143 22.3113C21.9051 22.441 20.6266 22.441 19.0623 22.441H7.86634C6.30195 22.441 5.02356 22.441 4.01426 22.3113C2.95929 22.1755 2.04463 21.882 1.31453 21.1836C0.584434 20.4853 0.277476 19.6103 0.135625 18.6012C-6.74849e-05 17.6358 -3.99936e-05 16.413 1.43501e-06 14.9167V14.7747C-3.99936e-05 13.2785 -6.74849e-05 12.0556 0.135625 11.0902C0.277476 10.0811 0.584434 9.20622 1.31453 8.50787C2.04463 7.80951 2.95929 7.51589 4.01426 7.38023C5.02355 7.25043 6.30192 7.25046 7.86629 7.25049H19.0623C20.6266 7.25046 21.9051 7.25043 22.9143 7.38023C23.9693 7.51589 24.8839 7.80951 25.614 8.50787C26.3442 9.20622 26.6511 10.0811 26.793 11.0902C26.9286 12.0556 26.9286 13.2785 26.9286 14.7747V14.9167Z" fill="white"/>
<path fill-rule="evenodd" clip-rule="evenodd" d="M20.628 0.0247819C21.377 0.167904 21.8683 0.891206 21.7253 1.64033C21.5459 2.57876 21.195 3.42641 20.4812 4.12142C19.6612 4.91971 18.6466 5.24042 17.5345 5.38599C16.4788 5.52416 15.1495 5.52412 13.5571 5.52407H13.3709C11.7786 5.52412 10.4493 5.52416 9.39363 5.38599C8.28143 5.24042 7.26692 4.91971 6.44693 4.12142C5.73304 3.42641 5.38212 2.57876 5.20285 1.64033C5.05974 0.891206 5.55101 0.167904 6.30014 0.0247819C7.04926 -0.118326 7.77258 0.372948 7.91569 1.12207C8.02502 1.69433 8.18456 1.95847 8.37353 2.14245C8.59222 2.35535 8.93288 2.54022 9.75207 2.64745C10.6073 2.75937 11.7543 2.76216 13.464 2.76216C15.1738 2.76216 16.3208 2.75937 17.176 2.64745C17.9952 2.54022 18.3359 2.35535 18.5545 2.14245C18.7435 1.95849 18.903 1.69433 19.0124 1.12207C19.1555 0.372948 19.8788 -0.118326 20.628 0.0247819Z" fill="white"/>
<path fill-rule="evenodd" clip-rule="evenodd" d="M20.628 29.6657C21.377 29.5227 21.8683 28.7993 21.7253 28.0502C21.5459 27.1118 21.195 26.2642 20.4812 25.5691C19.6612 24.7708 18.6466 24.4502 17.5345 24.3046C16.4788 24.1664 15.1495 24.1664 13.5571 24.1665H13.3709C11.7786 24.1664 10.4493 24.1664 9.39363 24.3046C8.28143 24.4502 7.26692 24.7708 6.44693 25.5691C5.73304 26.2642 5.38212 27.1118 5.20285 28.0502C5.05974 28.7993 5.55101 29.5227 6.30014 29.6657C7.04926 29.8088 7.77258 29.3176 7.91569 28.5684C8.02502 27.9962 8.18456 27.732 8.37353 27.5481C8.59222 27.3352 8.93288 27.1503 9.75207 27.043C10.6073 26.9312 11.7543 26.9284 13.464 26.9284C15.1738 26.9284 16.3208 26.9312 17.176 27.043C17.9952 27.1503 18.3359 27.3352 18.5545 27.5481C18.7435 27.732 18.903 27.9962 19.0124 28.5684C19.1555 29.3176 19.8788 29.8088 20.628 29.6657Z" fill="white"/>
</svg>
