<svg width="26" height="31" viewBox="0 0 26 31" fill="none" xmlns="http://www.w3.org/2000/svg">
<path fill-rule="evenodd" clip-rule="evenodd" d="M20.9101 0.54714C19.7128 0.386176 18.1906 0.386204 16.302 0.386231H9.24566C7.3571 0.386204 5.83482 0.386176 4.63759 0.54714C3.39458 0.714263 2.34799 1.07178 1.51677 1.903C0.685547 2.73422 0.328032 3.78081 0.160909 5.02382C-5.46135e-05 6.22105 -2.68955e-05 7.7433 7.23554e-07 9.63186V20.8311C-2.68955e-05 22.7197 -5.46135e-05 24.2419 0.160909 25.4391C0.328032 26.6822 0.685547 27.7287 1.51677 28.56C2.34799 29.3912 3.39458 29.7487 4.63759 29.9158C5.83483 30.0767 7.35708 30.0767 9.24564 30.0767H16.302C18.1906 30.0767 19.7128 30.0767 20.9101 29.9158C22.1531 29.7487 23.1996 29.3912 24.0309 28.56C24.8621 27.7287 25.2196 26.6822 25.3867 25.4391C25.5476 24.2419 25.5476 22.7197 25.5476 20.8311V9.63189C25.5476 7.74331 25.5476 6.22106 25.3867 5.02382C25.2196 3.78081 24.8621 2.73422 24.0309 1.903C23.1996 1.07178 22.1531 0.714263 20.9101 0.54714ZM12.7738 24.2077C12.0111 24.2077 11.3929 24.8259 11.3929 25.5886C11.3929 26.3513 12.0111 26.9696 12.7738 26.9696H12.7876C13.5503 26.9696 14.1686 26.3513 14.1686 25.5886C14.1686 24.8259 13.5503 24.2077 12.7876 24.2077H12.7738Z" fill="white"/>
</svg>
