<svg width="27" height="16" viewBox="0 0 27 16" fill="none" xmlns="http://www.w3.org/2000/svg">
<path d="M26.9286 7.91671C26.9286 9.41297 26.9286 10.6358 26.793 11.6012C26.6511 12.6103 26.3442 13.4853 25.614 14.1836C24.8839 14.882 23.9693 15.1755 22.9143 15.3113C21.9051 15.441 20.6266 15.441 19.0623 15.441H7.86634C6.30195 15.441 5.02356 15.441 4.01426 15.3113C2.95929 15.1755 2.04463 14.882 1.31453 14.1836C0.584434 13.4853 0.277476 12.6103 0.135625 11.6012C-6.74849e-05 10.6358 -3.99936e-05 9.41297 1.43501e-06 7.91671V7.77475C-3.99936e-05 6.27848 -6.74849e-05 5.05562 0.135625 4.09023C0.277476 3.08111 0.584434 2.20622 1.31453 1.50787C2.04463 0.809513 2.95929 0.515894 4.01426 0.380229C5.02355 0.250434 6.30192 0.250461 7.86629 0.250489H19.0623C20.6266 0.250461 21.9051 0.250434 22.9143 0.380229C23.9693 0.515894 24.8839 0.809513 25.614 1.50787C26.3442 2.20622 26.6511 3.08111 26.793 4.09023C26.9286 5.05562 26.9286 6.27848 26.9286 7.77475V7.91671Z" fill="white"/>
</svg>
