<svg width="16" height="16" viewBox="0 0 16 16" fill="none" xmlns="http://www.w3.org/2000/svg">
<path d="M9.7725 0.197266C9.82482 0.284998 9.86783 0.37043 9.90192 0.452067C10.1372 0.900291 10.2218 1.41876 10.0901 1.90397C9.95133 2.41498 9.58489 2.83735 9.02556 3.05897C8.77753 3.15724 8.69373 3.2515 8.65726 3.30665C8.61217 3.37467 8.58627 3.45975 8.55248 3.64536L8.54326 3.69704C8.51446 3.86106 8.47025 4.11308 8.35126 4.35315C8.20502 4.64822 7.96554 4.90002 7.59286 5.09693C6.57057 5.63701 5.19059 5.41232 3.95112 4.10266C3.35132 3.46889 3.12681 3.29021 2.72427 3.24773C2.71676 3.24694 2.70925 3.246 2.70177 3.24489C2.45029 3.20797 1.94348 3.24006 1.37283 3.51769C0.506478 4.79626 0 6.33932 0 8.00007C0 12.3533 3.47687 15.8943 7.8051 15.9978C7.74943 15.9565 7.69957 15.9177 7.65596 15.8823C7.2 15.5406 6.94355 15.1143 6.91706 14.6209C6.89228 14.1607 7.07483 13.7366 7.27412 13.3939C7.56473 12.8941 7.65299 12.7326 7.69868 12.5493C7.7472 12.3547 7.75122 12.121 7.75122 11.4565C7.75122 11.0902 7.80473 10.7209 7.96874 10.3908C8.13931 10.0476 8.41228 9.78202 8.784 9.61019C9.47944 9.28885 10.4895 9.3111 11.8297 9.57916C11.9836 9.60989 12.1455 9.58668 12.3585 9.49901C12.5356 9.42623 12.7047 9.32934 12.913 9.20997C12.9781 9.17276 13.0469 9.13332 13.121 9.09179C13.7041 8.76457 14.5012 8.37551 15.52 8.73354C15.5444 8.7421 15.5681 8.75237 15.5911 8.7642C15.6877 8.81406 15.8067 8.88766 15.9399 8.98522C15.9796 8.66225 16 8.33347 16 8.00007C16 4.19057 13.3377 1.00396 9.7725 0.197266Z" fill="white"/>
<path d="M7.9638 0C8.53683 0.325797 8.80577 0.713592 8.8764 0.893194C8.88473 0.914485 8.89441 0.935233 8.90535 0.955341C9.03826 1.20019 9.06036 1.43605 9.01281 1.61125C8.96935 1.77126 8.85787 1.92452 8.61429 2.02101C8.20745 2.18221 7.91737 2.40191 7.72648 2.69017C7.54416 2.96557 7.48916 3.25337 7.45426 3.44502L7.4489 3.47418C7.41288 3.67234 7.39554 3.76748 7.35104 3.85727C7.31837 3.92326 7.2566 4.01189 7.07137 4.10974C6.60581 4.3557 5.75411 4.38362 4.76185 3.33517C4.1886 2.72947 3.70705 2.23262 2.85244 2.13863C2.76886 2.12685 2.67716 2.11933 2.57855 2.11699C3.99531 0.810798 5.88649 0.00921302 7.9638 0Z" fill="white"/>
<path d="M15.6833 10.2356C15.4435 9.99469 15.231 9.84191 15.111 9.77322C14.5981 9.60764 14.1921 9.77047 13.6672 10.0649C13.6167 10.0933 13.5633 10.124 13.5077 10.1559C13.2887 10.2817 13.0345 10.4277 12.7832 10.5311C12.4487 10.6686 12.054 10.762 11.6108 10.6734C10.2931 10.4099 9.59784 10.4635 9.25224 10.6232C9.10348 10.6919 9.02207 10.7793 8.96841 10.8873C8.90813 11.0085 8.8675 11.1888 8.8675 11.4562V11.5308C8.86765 12.0925 8.8678 12.4741 8.78184 12.819C8.69321 13.1744 8.51706 13.4771 8.27208 13.898L8.23911 13.9547C8.07889 14.2302 8.02441 14.4244 8.0317 14.5606C8.03706 14.6598 8.07784 14.8052 8.33161 14.9933C8.3389 14.9987 8.34605 15.0043 8.35304 15.01C8.59654 15.2095 9.10824 15.55 9.72473 15.8134C12.586 15.1847 14.873 13.0244 15.6833 10.2356Z" fill="white"/>
</svg>
